<svg width="379" height="463" viewBox="0 0 379 463" fill="none" xmlns="http://www.w3.org/2000/svg">
<path d="M366.158 123.716C347.464 119.679 347.242 93.0476 349.467 80.2367C355.031 73.6372 368.495 53.7611 377.842 27.0525C377.842 1.58616 316.271 16.4415 285.485 27.0525V207.18H307.74V75.9665C308.667 69.4964 313.192 54.1493 323.875 44.5218C376.729 18.9002 345.016 56.5562 323.875 96.1532C306.961 127.831 326.471 133.68 338.34 132.645L345.016 155.161C350.395 154.384 362.152 147.008 366.158 123.716Z" fill="#F5F500" stroke="#F5F500"/>
<path d="M33.5503 95.7703C9.60575 80.4571 9.60575 80.4571 66.6005 28.5623C96.5481 -14.5416 85.1491 41.985 75.7062 75.6363C58.2817 93.5017 35.5738 124.922 84.1373 107.681C144.842 86.1287 126.293 112.501 84.1373 181.978C41.9815 251.455 18.7115 213.455 45.0167 176.023C71.3218 138.591 74.0201 128.665 18.7115 138.307C-36.597 147.949 57.4948 111.084 33.5503 95.7703Z" fill="#F5F500" stroke="#F5F500"/>
<path d="M48.4095 299.176C32.8662 282.08 136.662 230.722 190.503 207.18C250.434 231.129 365.597 282.161 346.806 294.699C328.015 307.236 243.281 260.709 203.263 235.878L190.503 226.922C149.615 258.131 63.9528 316.273 48.4095 299.176Z" fill="#F5F500"/>
<path d="M48.4095 299.176C32.8662 282.08 136.662 230.722 190.503 207.18C250.434 231.129 365.597 282.161 346.806 294.699C328.015 307.236 243.281 260.709 203.263 235.878L190.503 226.922C149.615 258.131 63.9528 316.273 48.4095 299.176Z" stroke="#F5F500"/>
<path d="M148.579 102.377C212.698 99.9592 248.596 109.013 237.244 114.251C228.163 118.441 168.52 107.212 148.579 102.377Z" fill="#F5F500"/>
<path d="M165.075 85.3272C229.193 82.9096 265.779 90.1361 254.427 95.3743C245.347 99.5649 185.016 90.1625 165.075 85.3272Z" fill="#F5F500"/>
<path d="M148.579 102.377C212.698 99.9592 248.596 109.013 237.244 114.251C228.163 118.441 168.52 107.212 148.579 102.377Z" stroke="#F5F500"/>
<path d="M165.075 85.3272C229.193 82.9096 265.779 90.1361 254.427 95.3743C245.347 99.5649 185.016 90.1625 165.075 85.3272Z" stroke="#F5F500"/>
<path d="M195.318 16.5195C192.844 55.9773 158.546 65.8418 141.707 65.8418C124.18 65.8418 141.707 89.8941 135.177 149.568C128.647 209.242 174.698 204.066 190.507 193.41C239.307 170.576 248.586 199.499 255.803 183.972C263.02 168.444 177.448 142.124 198.411 159.615C219.375 177.106 199.786 183.667 161.983 162.66C124.18 141.652 205.972 143.174 225.217 136.476C244.462 129.778 164.045 119.427 153.047 109.684C142.05 99.9412 163.014 83.5005 190.507 71.3221C245.837 48.4877 224.873 65.8418 255.803 74.0622C286.733 82.2827 195.318 150.786 242.056 132.518C288.795 114.251 282.609 44.2252 250.992 47.8787C219.375 51.5322 198.411 -32.8029 195.318 16.5195Z" fill="#F5F500" stroke="#F5F500"/>
<path d="M200.981 374.635C156.471 354.958 193.277 345.876 238.929 345.876C240.165 346.481 243.037 347.329 244.635 345.876C284.865 341.94 214.106 337.702 179.867 341.032C135.357 372.516 151.335 333.464 142.49 309.548C133.645 285.633 212.964 298.045 238.929 298.045C281.442 289.568 253.48 334.675 258.901 345.876C264.322 357.077 271.74 314.392 271.74 304.402C301.699 279.275 203.834 276.853 157.612 275.945C111.391 275.037 117.097 323.171 121.377 358.288C147.056 370.7 120.236 460.61 159.895 461.821C199.555 463.032 238.929 427.007 206.117 433.365C173.305 439.722 163.319 423.072 163.319 391.588C146.2 360.104 311.685 440.63 287.718 423.072C263.752 405.513 262.04 394.918 287.718 358.288C288.289 320.144 245.491 394.312 200.981 374.635Z" fill="#F5F500" stroke="#F5F500"/>
<path d="M150.194 307.429C247.203 307.429 268.602 309.548 254.907 317.419C243.951 323.716 180.533 313.382 150.194 307.429Z" fill="#F5F500"/>
<path d="M253.195 334.372C214.772 328.519 141.064 318.751 153.618 326.501C166.172 334.251 225.234 334.977 253.195 334.372Z" fill="#F5F500"/>
<path d="M150.194 307.429C247.203 307.429 268.602 309.548 254.907 317.419C243.951 323.716 180.533 313.382 150.194 307.429Z" stroke="#F5F500"/>
<path d="M253.195 334.372C214.772 328.519 141.064 318.751 153.618 326.501C166.172 334.251 225.234 334.977 253.195 334.372Z" stroke="#F5F500"/>
<defs>
</defs>
</svg>
